<?xml version="1.0" encoding="utf-8" standalone="no"?>
<!DOCTYPE svg PUBLIC "-//W3C//DTD SVG 1.1//EN"
  "http://www.w3.org/Graphics/SVG/1.1/DTD/svg11.dtd">
<svg xmlns:xlink="http://www.w3.org/1999/xlink" width="720pt" height="360pt" viewBox="0 0 720 360" xmlns="http://www.w3.org/2000/svg" version="1.1">
 <metadata>
  <rdf:RDF xmlns:dc="http://purl.org/dc/elements/1.1/" xmlns:cc="http://creativecommons.org/ns#" xmlns:rdf="http://www.w3.org/1999/02/22-rdf-syntax-ns#">
   <cc:Work>
    <dc:type rdf:resource="http://purl.org/dc/dcmitype/StillImage"/>
    <dc:date>2025-08-18T15:54:00.188609</dc:date>
    <dc:format>image/svg+xml</dc:format>
    <dc:creator>
     <cc:Agent>
      <dc:title>Matplotlib v3.10.0, https://matplotlib.org/</dc:title>
     </cc:Agent>
    </dc:creator>
   </cc:Work>
  </rdf:RDF>
 </metadata>
 <defs>
  <style type="text/css">*{stroke-linejoin: round; stroke-linecap: butt}</style>
 </defs>
 <g id="figure_1">
  <g id="patch_1">
   <path d="M 0 360 
L 720 360 
L 720 0 
L 0 0 
z
" style="fill: #ffffff"/>
  </g>
  <g id="axes_1">
   <g id="patch_2">
    <path d="M 90 320.4 
L 648 320.4 
L 648 43.2 
L 90 43.2 
z
" style="fill: #ffffff"/>
   </g>
   <g id="patch_3">
    <path d="M 115.363636 320.4 
L 140.727273 320.4 
L 140.727273 318.833525 
L 115.363636 318.833525 
z
" clip-path="url(#p0222f92e62)" style="fill: #6495ed; stroke: #000000; stroke-width: 0.2; stroke-linejoin: miter"/>
   </g>
   <g id="patch_4">
    <path d="M 140.727273 320.4 
L 166.090909 320.4 
L 166.090909 310.311904 
L 140.727273 310.311904 
z
" clip-path="url(#p0222f92e62)" style="fill: #6495ed; stroke: #000000; stroke-width: 0.2; stroke-linejoin: miter"/>
   </g>
   <g id="patch_5">
    <path d="M 166.090909 320.4 
L 191.454545 320.4 
L 191.454545 294.145886 
L 166.090909 294.145886 
z
" clip-path="url(#p0222f92e62)" style="fill: #6495ed; stroke: #000000; stroke-width: 0.2; stroke-linejoin: miter"/>
   </g>
   <g id="patch_6">
    <path d="M 191.454545 320.4 
L 216.818182 320.4 
L 216.818182 257.6157 
L 191.454545 257.6157 
z
" clip-path="url(#p0222f92e62)" style="fill: #6495ed; stroke: #000000; stroke-width: 0.2; stroke-linejoin: miter"/>
   </g>
   <g id="patch_7">
    <path d="M 216.818182 320.4 
L 242.181818 320.4 
L 242.181818 189.004114 
L 216.818182 189.004114 
z
" clip-path="url(#p0222f92e62)" style="fill: #6495ed; stroke: #000000; stroke-width: 0.2; stroke-linejoin: miter"/>
   </g>
   <g id="patch_8">
    <path d="M 242.181818 320.4 
L 267.545455 320.4 
L 267.545455 110.022467 
L 242.181818 110.022467 
z
" clip-path="url(#p0222f92e62)" style="fill: #6495ed; stroke: #000000; stroke-width: 0.2; stroke-linejoin: miter"/>
   </g>
   <g id="patch_9">
    <path d="M 267.545455 320.4 
L 292.909091 320.4 
L 292.909091 68.698868 
L 267.545455 68.698868 
z
" clip-path="url(#p0222f92e62)" style="fill: #6495ed; stroke: #000000; stroke-width: 0.2; stroke-linejoin: miter"/>
   </g>
   <g id="patch_10">
    <path d="M 292.909091 320.4 
L 318.272727 320.4 
L 318.272727 90.692171 
L 292.909091 90.692171 
z
" clip-path="url(#p0222f92e62)" style="fill: #6495ed; stroke: #000000; stroke-width: 0.2; stroke-linejoin: miter"/>
   </g>
   <g id="patch_11">
    <path d="M 318.272727 320.4 
L 343.636364 320.4 
L 343.636364 146.80329 
L 318.272727 146.80329 
z
" clip-path="url(#p0222f92e62)" style="fill: #6495ed; stroke: #000000; stroke-width: 0.2; stroke-linejoin: miter"/>
   </g>
   <g id="patch_12">
    <path d="M 343.636364 320.4 
L 369 320.4 
L 369 206.266664 
L 343.636364 206.266664 
z
" clip-path="url(#p0222f92e62)" style="fill: #6495ed; stroke: #000000; stroke-width: 0.2; stroke-linejoin: miter"/>
   </g>
   <g id="patch_13">
    <path d="M 369 320.4 
L 394.363636 320.4 
L 394.363636 247.245638 
L 369 247.245638 
z
" clip-path="url(#p0222f92e62)" style="fill: #6495ed; stroke: #000000; stroke-width: 0.2; stroke-linejoin: miter"/>
   </g>
   <g id="patch_14">
    <path d="M 394.363636 320.4 
L 419.727273 320.4 
L 419.727273 279.421026 
L 394.363636 279.421026 
z
" clip-path="url(#p0222f92e62)" style="fill: #6495ed; stroke: #000000; stroke-width: 0.2; stroke-linejoin: miter"/>
   </g>
   <g id="patch_15">
    <path d="M 419.727273 320.4 
L 445.090909 320.4 
L 445.090909 297.999414 
L 419.727273 297.999414 
z
" clip-path="url(#p0222f92e62)" style="fill: #6495ed; stroke: #000000; stroke-width: 0.2; stroke-linejoin: miter"/>
   </g>
   <g id="patch_16">
    <path d="M 445.090909 320.4 
L 470.454545 320.4 
L 470.454545 305.048549 
L 445.090909 305.048549 
z
" clip-path="url(#p0222f92e62)" style="fill: #6495ed; stroke: #000000; stroke-width: 0.2; stroke-linejoin: miter"/>
   </g>
   <g id="patch_17">
    <path d="M 470.454545 320.4 
L 495.818182 320.4 
L 495.818182 310.53121 
L 470.454545 310.53121 
z
" clip-path="url(#p0222f92e62)" style="fill: #6495ed; stroke: #000000; stroke-width: 0.2; stroke-linejoin: miter"/>
   </g>
   <g id="patch_18">
    <path d="M 495.818182 320.4 
L 521.181818 320.4 
L 521.181818 314.541385 
L 495.818182 314.541385 
z
" clip-path="url(#p0222f92e62)" style="fill: #6495ed; stroke: #000000; stroke-width: 0.2; stroke-linejoin: miter"/>
   </g>
   <g id="patch_19">
    <path d="M 521.181818 320.4 
L 546.545455 320.4 
L 546.545455 317.92497 
L 521.181818 317.92497 
z
" clip-path="url(#p0222f92e62)" style="fill: #6495ed; stroke: #000000; stroke-width: 0.2; stroke-linejoin: miter"/>
   </g>
   <g id="patch_20">
    <path d="M 546.545455 320.4 
L 571.909091 320.4 
L 571.909091 319.272138 
L 546.545455 319.272138 
z
" clip-path="url(#p0222f92e62)" style="fill: #6495ed; stroke: #000000; stroke-width: 0.2; stroke-linejoin: miter"/>
   </g>
   <g id="patch_21">
    <path d="M 571.909091 320.4 
L 597.272727 320.4 
L 597.272727 320.055376 
L 571.909091 320.055376 
z
" clip-path="url(#p0222f92e62)" style="fill: #6495ed; stroke: #000000; stroke-width: 0.2; stroke-linejoin: miter"/>
   </g>
   <g id="patch_22">
    <path d="M 597.272727 320.4 
L 622.636364 320.4 
L 622.636364 320.055376 
L 597.272727 320.055376 
z
" clip-path="url(#p0222f92e62)" style="fill: #6495ed; stroke: #000000; stroke-width: 0.2; stroke-linejoin: miter"/>
   </g>
   <g id="matplotlib.axis_1">
    <g id="xtick_1">
     <g id="line2d_1">
      <defs>
       <path id="m5cacc5efbb" d="M 0 0 
L 0 3.5 
" style="stroke: #000000; stroke-width: 0.8"/>
      </defs>
      <g>
       <use xlink:href="#m5cacc5efbb" x="90.167971" y="320.4" style="stroke: #000000; stroke-width: 0.8"/>
      </g>
     </g>
     <g id="text_1">
      <!-- 5 -->
      <g transform="translate(85.714221 338.037813) scale(0.14 -0.14)">
       <defs>
        <path id="DejaVuSans-35" d="M 691 4666 
L 3169 4666 
L 3169 4134 
L 1269 4134 
L 1269 2991 
Q 1406 3038 1543 3061 
Q 1681 3084 1819 3084 
Q 2600 3084 3056 2656 
Q 3513 2228 3513 1497 
Q 3513 744 3044 326 
Q 2575 -91 1722 -91 
Q 1428 -91 1123 -41 
Q 819 9 494 109 
L 494 744 
Q 775 591 1075 516 
Q 1375 441 1709 441 
Q 2250 441 2565 725 
Q 2881 1009 2881 1497 
Q 2881 1984 2565 2268 
Q 2250 2553 1709 2553 
Q 1456 2553 1204 2497 
Q 953 2441 691 2322 
L 691 4666 
z
" transform="scale(0.015625)"/>
       </defs>
       <use xlink:href="#DejaVuSans-35"/>
      </g>
     </g>
    </g>
    <g id="xtick_2">
     <g id="line2d_2">
      <g>
       <use xlink:href="#m5cacc5efbb" x="174.153522" y="320.4" style="stroke: #000000; stroke-width: 0.8"/>
      </g>
     </g>
     <g id="text_2">
      <!-- 10 -->
      <g transform="translate(165.246022 338.037813) scale(0.14 -0.14)">
       <defs>
        <path id="DejaVuSans-31" d="M 794 531 
L 1825 531 
L 1825 4091 
L 703 3866 
L 703 4441 
L 1819 4666 
L 2450 4666 
L 2450 531 
L 3481 531 
L 3481 0 
L 794 0 
L 794 531 
z
" transform="scale(0.015625)"/>
        <path id="DejaVuSans-30" d="M 2034 4250 
Q 1547 4250 1301 3770 
Q 1056 3291 1056 2328 
Q 1056 1369 1301 889 
Q 1547 409 2034 409 
Q 2525 409 2770 889 
Q 3016 1369 3016 2328 
Q 3016 3291 2770 3770 
Q 2525 4250 2034 4250 
z
M 2034 4750 
Q 2819 4750 3233 4129 
Q 3647 3509 3647 2328 
Q 3647 1150 3233 529 
Q 2819 -91 2034 -91 
Q 1250 -91 836 529 
Q 422 1150 422 2328 
Q 422 3509 836 4129 
Q 1250 4750 2034 4750 
z
" transform="scale(0.015625)"/>
       </defs>
       <use xlink:href="#DejaVuSans-31"/>
       <use xlink:href="#DejaVuSans-30" transform="translate(63.623047 0)"/>
      </g>
     </g>
    </g>
    <g id="xtick_3">
     <g id="line2d_3">
      <g>
       <use xlink:href="#m5cacc5efbb" x="258.139073" y="320.4" style="stroke: #000000; stroke-width: 0.8"/>
      </g>
     </g>
     <g id="text_3">
      <!-- 15 -->
      <g transform="translate(249.231573 338.037813) scale(0.14 -0.14)">
       <use xlink:href="#DejaVuSans-31"/>
       <use xlink:href="#DejaVuSans-35" transform="translate(63.623047 0)"/>
      </g>
     </g>
    </g>
    <g id="xtick_4">
     <g id="line2d_4">
      <g>
       <use xlink:href="#m5cacc5efbb" x="342.124624" y="320.4" style="stroke: #000000; stroke-width: 0.8"/>
      </g>
     </g>
     <g id="text_4">
      <!-- 20 -->
      <g transform="translate(333.217124 338.037813) scale(0.14 -0.14)">
       <defs>
        <path id="DejaVuSans-32" d="M 1228 531 
L 3431 531 
L 3431 0 
L 469 0 
L 469 531 
Q 828 903 1448 1529 
Q 2069 2156 2228 2338 
Q 2531 2678 2651 2914 
Q 2772 3150 2772 3378 
Q 2772 3750 2511 3984 
Q 2250 4219 1831 4219 
Q 1534 4219 1204 4116 
Q 875 4013 500 3803 
L 500 4441 
Q 881 4594 1212 4672 
Q 1544 4750 1819 4750 
Q 2544 4750 2975 4387 
Q 3406 4025 3406 3419 
Q 3406 3131 3298 2873 
Q 3191 2616 2906 2266 
Q 2828 2175 2409 1742 
Q 1991 1309 1228 531 
z
" transform="scale(0.015625)"/>
       </defs>
       <use xlink:href="#DejaVuSans-32"/>
       <use xlink:href="#DejaVuSans-30" transform="translate(63.623047 0)"/>
      </g>
     </g>
    </g>
    <g id="xtick_5">
     <g id="line2d_5">
      <g>
       <use xlink:href="#m5cacc5efbb" x="426.110175" y="320.4" style="stroke: #000000; stroke-width: 0.8"/>
      </g>
     </g>
     <g id="text_5">
      <!-- 25 -->
      <g transform="translate(417.202675 338.037813) scale(0.14 -0.14)">
       <use xlink:href="#DejaVuSans-32"/>
       <use xlink:href="#DejaVuSans-35" transform="translate(63.623047 0)"/>
      </g>
     </g>
    </g>
    <g id="xtick_6">
     <g id="line2d_6">
      <g>
       <use xlink:href="#m5cacc5efbb" x="510.095725" y="320.4" style="stroke: #000000; stroke-width: 0.8"/>
      </g>
     </g>
     <g id="text_6">
      <!-- 30 -->
      <g transform="translate(501.188225 338.037813) scale(0.14 -0.14)">
       <defs>
        <path id="DejaVuSans-33" d="M 2597 2516 
Q 3050 2419 3304 2112 
Q 3559 1806 3559 1356 
Q 3559 666 3084 287 
Q 2609 -91 1734 -91 
Q 1441 -91 1130 -33 
Q 819 25 488 141 
L 488 750 
Q 750 597 1062 519 
Q 1375 441 1716 441 
Q 2309 441 2620 675 
Q 2931 909 2931 1356 
Q 2931 1769 2642 2001 
Q 2353 2234 1838 2234 
L 1294 2234 
L 1294 2753 
L 1863 2753 
Q 2328 2753 2575 2939 
Q 2822 3125 2822 3475 
Q 2822 3834 2567 4026 
Q 2313 4219 1838 4219 
Q 1578 4219 1281 4162 
Q 984 4106 628 3988 
L 628 4550 
Q 988 4650 1302 4700 
Q 1616 4750 1894 4750 
Q 2613 4750 3031 4423 
Q 3450 4097 3450 3541 
Q 3450 3153 3228 2886 
Q 3006 2619 2597 2516 
z
" transform="scale(0.015625)"/>
       </defs>
       <use xlink:href="#DejaVuSans-33"/>
       <use xlink:href="#DejaVuSans-30" transform="translate(63.623047 0)"/>
      </g>
     </g>
    </g>
    <g id="xtick_7">
     <g id="line2d_7">
      <g>
       <use xlink:href="#m5cacc5efbb" x="594.081276" y="320.4" style="stroke: #000000; stroke-width: 0.8"/>
      </g>
     </g>
     <g id="text_7">
      <!-- 35 -->
      <g transform="translate(585.173776 338.037813) scale(0.14 -0.14)">
       <use xlink:href="#DejaVuSans-33"/>
       <use xlink:href="#DejaVuSans-35" transform="translate(63.623047 0)"/>
      </g>
     </g>
    </g>
    <g id="text_8">
     <!-- Summer air temperature in Delft [°C] -->
     <g transform="translate(238.107656 355.587188) scale(0.14 -0.14)">
      <defs>
       <path id="DejaVuSans-53" d="M 3425 4513 
L 3425 3897 
Q 3066 4069 2747 4153 
Q 2428 4238 2131 4238 
Q 1616 4238 1336 4038 
Q 1056 3838 1056 3469 
Q 1056 3159 1242 3001 
Q 1428 2844 1947 2747 
L 2328 2669 
Q 3034 2534 3370 2195 
Q 3706 1856 3706 1288 
Q 3706 609 3251 259 
Q 2797 -91 1919 -91 
Q 1588 -91 1214 -16 
Q 841 59 441 206 
L 441 856 
Q 825 641 1194 531 
Q 1563 422 1919 422 
Q 2459 422 2753 634 
Q 3047 847 3047 1241 
Q 3047 1584 2836 1778 
Q 2625 1972 2144 2069 
L 1759 2144 
Q 1053 2284 737 2584 
Q 422 2884 422 3419 
Q 422 4038 858 4394 
Q 1294 4750 2059 4750 
Q 2388 4750 2728 4690 
Q 3069 4631 3425 4513 
z
" transform="scale(0.015625)"/>
       <path id="DejaVuSans-75" d="M 544 1381 
L 544 3500 
L 1119 3500 
L 1119 1403 
Q 1119 906 1312 657 
Q 1506 409 1894 409 
Q 2359 409 2629 706 
Q 2900 1003 2900 1516 
L 2900 3500 
L 3475 3500 
L 3475 0 
L 2900 0 
L 2900 538 
Q 2691 219 2414 64 
Q 2138 -91 1772 -91 
Q 1169 -91 856 284 
Q 544 659 544 1381 
z
M 1991 3584 
L 1991 3584 
z
" transform="scale(0.015625)"/>
       <path id="DejaVuSans-6d" d="M 3328 2828 
Q 3544 3216 3844 3400 
Q 4144 3584 4550 3584 
Q 5097 3584 5394 3201 
Q 5691 2819 5691 2113 
L 5691 0 
L 5113 0 
L 5113 2094 
Q 5113 2597 4934 2840 
Q 4756 3084 4391 3084 
Q 3944 3084 3684 2787 
Q 3425 2491 3425 1978 
L 3425 0 
L 2847 0 
L 2847 2094 
Q 2847 2600 2669 2842 
Q 2491 3084 2119 3084 
Q 1678 3084 1418 2786 
Q 1159 2488 1159 1978 
L 1159 0 
L 581 0 
L 581 3500 
L 1159 3500 
L 1159 2956 
Q 1356 3278 1631 3431 
Q 1906 3584 2284 3584 
Q 2666 3584 2933 3390 
Q 3200 3197 3328 2828 
z
" transform="scale(0.015625)"/>
       <path id="DejaVuSans-65" d="M 3597 1894 
L 3597 1613 
L 953 1613 
Q 991 1019 1311 708 
Q 1631 397 2203 397 
Q 2534 397 2845 478 
Q 3156 559 3463 722 
L 3463 178 
Q 3153 47 2828 -22 
Q 2503 -91 2169 -91 
Q 1331 -91 842 396 
Q 353 884 353 1716 
Q 353 2575 817 3079 
Q 1281 3584 2069 3584 
Q 2775 3584 3186 3129 
Q 3597 2675 3597 1894 
z
M 3022 2063 
Q 3016 2534 2758 2815 
Q 2500 3097 2075 3097 
Q 1594 3097 1305 2825 
Q 1016 2553 972 2059 
L 3022 2063 
z
" transform="scale(0.015625)"/>
       <path id="DejaVuSans-72" d="M 2631 2963 
Q 2534 3019 2420 3045 
Q 2306 3072 2169 3072 
Q 1681 3072 1420 2755 
Q 1159 2438 1159 1844 
L 1159 0 
L 581 0 
L 581 3500 
L 1159 3500 
L 1159 2956 
Q 1341 3275 1631 3429 
Q 1922 3584 2338 3584 
Q 2397 3584 2469 3576 
Q 2541 3569 2628 3553 
L 2631 2963 
z
" transform="scale(0.015625)"/>
       <path id="DejaVuSans-20" transform="scale(0.015625)"/>
       <path id="DejaVuSans-61" d="M 2194 1759 
Q 1497 1759 1228 1600 
Q 959 1441 959 1056 
Q 959 750 1161 570 
Q 1363 391 1709 391 
Q 2188 391 2477 730 
Q 2766 1069 2766 1631 
L 2766 1759 
L 2194 1759 
z
M 3341 1997 
L 3341 0 
L 2766 0 
L 2766 531 
Q 2569 213 2275 61 
Q 1981 -91 1556 -91 
Q 1019 -91 701 211 
Q 384 513 384 1019 
Q 384 1609 779 1909 
Q 1175 2209 1959 2209 
L 2766 2209 
L 2766 2266 
Q 2766 2663 2505 2880 
Q 2244 3097 1772 3097 
Q 1472 3097 1187 3025 
Q 903 2953 641 2809 
L 641 3341 
Q 956 3463 1253 3523 
Q 1550 3584 1831 3584 
Q 2591 3584 2966 3190 
Q 3341 2797 3341 1997 
z
" transform="scale(0.015625)"/>
       <path id="DejaVuSans-69" d="M 603 3500 
L 1178 3500 
L 1178 0 
L 603 0 
L 603 3500 
z
M 603 4863 
L 1178 4863 
L 1178 4134 
L 603 4134 
L 603 4863 
z
" transform="scale(0.015625)"/>
       <path id="DejaVuSans-74" d="M 1172 4494 
L 1172 3500 
L 2356 3500 
L 2356 3053 
L 1172 3053 
L 1172 1153 
Q 1172 725 1289 603 
Q 1406 481 1766 481 
L 2356 481 
L 2356 0 
L 1766 0 
Q 1100 0 847 248 
Q 594 497 594 1153 
L 594 3053 
L 172 3053 
L 172 3500 
L 594 3500 
L 594 4494 
L 1172 4494 
z
" transform="scale(0.015625)"/>
       <path id="DejaVuSans-70" d="M 1159 525 
L 1159 -1331 
L 581 -1331 
L 581 3500 
L 1159 3500 
L 1159 2969 
Q 1341 3281 1617 3432 
Q 1894 3584 2278 3584 
Q 2916 3584 3314 3078 
Q 3713 2572 3713 1747 
Q 3713 922 3314 415 
Q 2916 -91 2278 -91 
Q 1894 -91 1617 61 
Q 1341 213 1159 525 
z
M 3116 1747 
Q 3116 2381 2855 2742 
Q 2594 3103 2138 3103 
Q 1681 3103 1420 2742 
Q 1159 2381 1159 1747 
Q 1159 1113 1420 752 
Q 1681 391 2138 391 
Q 2594 391 2855 752 
Q 3116 1113 3116 1747 
z
" transform="scale(0.015625)"/>
       <path id="DejaVuSans-6e" d="M 3513 2113 
L 3513 0 
L 2938 0 
L 2938 2094 
Q 2938 2591 2744 2837 
Q 2550 3084 2163 3084 
Q 1697 3084 1428 2787 
Q 1159 2491 1159 1978 
L 1159 0 
L 581 0 
L 581 3500 
L 1159 3500 
L 1159 2956 
Q 1366 3272 1645 3428 
Q 1925 3584 2291 3584 
Q 2894 3584 3203 3211 
Q 3513 2838 3513 2113 
z
" transform="scale(0.015625)"/>
       <path id="DejaVuSans-44" d="M 1259 4147 
L 1259 519 
L 2022 519 
Q 2988 519 3436 956 
Q 3884 1394 3884 2338 
Q 3884 3275 3436 3711 
Q 2988 4147 2022 4147 
L 1259 4147 
z
M 628 4666 
L 1925 4666 
Q 3281 4666 3915 4102 
Q 4550 3538 4550 2338 
Q 4550 1131 3912 565 
Q 3275 0 1925 0 
L 628 0 
L 628 4666 
z
" transform="scale(0.015625)"/>
       <path id="DejaVuSans-6c" d="M 603 4863 
L 1178 4863 
L 1178 0 
L 603 0 
L 603 4863 
z
" transform="scale(0.015625)"/>
       <path id="DejaVuSans-66" d="M 2375 4863 
L 2375 4384 
L 1825 4384 
Q 1516 4384 1395 4259 
Q 1275 4134 1275 3809 
L 1275 3500 
L 2222 3500 
L 2222 3053 
L 1275 3053 
L 1275 0 
L 697 0 
L 697 3053 
L 147 3053 
L 147 3500 
L 697 3500 
L 697 3744 
Q 697 4328 969 4595 
Q 1241 4863 1831 4863 
L 2375 4863 
z
" transform="scale(0.015625)"/>
       <path id="DejaVuSans-5b" d="M 550 4863 
L 1875 4863 
L 1875 4416 
L 1125 4416 
L 1125 -397 
L 1875 -397 
L 1875 -844 
L 550 -844 
L 550 4863 
z
" transform="scale(0.015625)"/>
       <path id="DejaVuSans-b0" d="M 1600 4347 
Q 1350 4347 1178 4173 
Q 1006 4000 1006 3750 
Q 1006 3503 1178 3333 
Q 1350 3163 1600 3163 
Q 1850 3163 2022 3333 
Q 2194 3503 2194 3750 
Q 2194 3997 2020 4172 
Q 1847 4347 1600 4347 
z
M 1600 4750 
Q 1800 4750 1984 4673 
Q 2169 4597 2303 4453 
Q 2447 4313 2519 4134 
Q 2591 3956 2591 3750 
Q 2591 3338 2302 3052 
Q 2013 2766 1594 2766 
Q 1172 2766 890 3047 
Q 609 3328 609 3750 
Q 609 4169 896 4459 
Q 1184 4750 1600 4750 
z
" transform="scale(0.015625)"/>
       <path id="DejaVuSans-43" d="M 4122 4306 
L 4122 3641 
Q 3803 3938 3442 4084 
Q 3081 4231 2675 4231 
Q 1875 4231 1450 3742 
Q 1025 3253 1025 2328 
Q 1025 1406 1450 917 
Q 1875 428 2675 428 
Q 3081 428 3442 575 
Q 3803 722 4122 1019 
L 4122 359 
Q 3791 134 3420 21 
Q 3050 -91 2638 -91 
Q 1578 -91 968 557 
Q 359 1206 359 2328 
Q 359 3453 968 4101 
Q 1578 4750 2638 4750 
Q 3056 4750 3426 4639 
Q 3797 4528 4122 4306 
z
" transform="scale(0.015625)"/>
       <path id="DejaVuSans-5d" d="M 1947 4863 
L 1947 -844 
L 622 -844 
L 622 -397 
L 1369 -397 
L 1369 4416 
L 622 4416 
L 622 4863 
L 1947 4863 
z
" transform="scale(0.015625)"/>
      </defs>
      <use xlink:href="#DejaVuSans-53"/>
      <use xlink:href="#DejaVuSans-75" transform="translate(63.476562 0)"/>
      <use xlink:href="#DejaVuSans-6d" transform="translate(126.855469 0)"/>
      <use xlink:href="#DejaVuSans-6d" transform="translate(224.267578 0)"/>
      <use xlink:href="#DejaVuSans-65" transform="translate(321.679688 0)"/>
      <use xlink:href="#DejaVuSans-72" transform="translate(383.203125 0)"/>
      <use xlink:href="#DejaVuSans-20" transform="translate(424.316406 0)"/>
      <use xlink:href="#DejaVuSans-61" transform="translate(456.103516 0)"/>
      <use xlink:href="#DejaVuSans-69" transform="translate(517.382812 0)"/>
      <use xlink:href="#DejaVuSans-72" transform="translate(545.166016 0)"/>
      <use xlink:href="#DejaVuSans-20" transform="translate(586.279297 0)"/>
      <use xlink:href="#DejaVuSans-74" transform="translate(618.066406 0)"/>
      <use xlink:href="#DejaVuSans-65" transform="translate(657.275391 0)"/>
      <use xlink:href="#DejaVuSans-6d" transform="translate(718.798828 0)"/>
      <use xlink:href="#DejaVuSans-70" transform="translate(816.210938 0)"/>
      <use xlink:href="#DejaVuSans-65" transform="translate(879.6875 0)"/>
      <use xlink:href="#DejaVuSans-72" transform="translate(941.210938 0)"/>
      <use xlink:href="#DejaVuSans-61" transform="translate(982.324219 0)"/>
      <use xlink:href="#DejaVuSans-74" transform="translate(1043.603516 0)"/>
      <use xlink:href="#DejaVuSans-75" transform="translate(1082.8125 0)"/>
      <use xlink:href="#DejaVuSans-72" transform="translate(1146.191406 0)"/>
      <use xlink:href="#DejaVuSans-65" transform="translate(1185.054688 0)"/>
      <use xlink:href="#DejaVuSans-20" transform="translate(1246.578125 0)"/>
      <use xlink:href="#DejaVuSans-69" transform="translate(1278.365234 0)"/>
      <use xlink:href="#DejaVuSans-6e" transform="translate(1306.148438 0)"/>
      <use xlink:href="#DejaVuSans-20" transform="translate(1369.527344 0)"/>
      <use xlink:href="#DejaVuSans-44" transform="translate(1401.314453 0)"/>
      <use xlink:href="#DejaVuSans-65" transform="translate(1478.316406 0)"/>
      <use xlink:href="#DejaVuSans-6c" transform="translate(1539.839844 0)"/>
      <use xlink:href="#DejaVuSans-66" transform="translate(1567.623047 0)"/>
      <use xlink:href="#DejaVuSans-74" transform="translate(1601.078125 0)"/>
      <use xlink:href="#DejaVuSans-20" transform="translate(1640.287109 0)"/>
      <use xlink:href="#DejaVuSans-5b" transform="translate(1672.074219 0)"/>
      <use xlink:href="#DejaVuSans-b0" transform="translate(1711.087891 0)"/>
      <use xlink:href="#DejaVuSans-43" transform="translate(1761.087891 0)"/>
      <use xlink:href="#DejaVuSans-5d" transform="translate(1830.912109 0)"/>
     </g>
    </g>
   </g>
   <g id="matplotlib.axis_2">
    <g id="ytick_1">
     <g id="line2d_8">
      <defs>
       <path id="md3aa1efff5" d="M 0 0 
L -3.5 0 
" style="stroke: #000000; stroke-width: 0.8"/>
      </defs>
      <g>
       <use xlink:href="#md3aa1efff5" x="90" y="320.4" style="stroke: #000000; stroke-width: 0.8"/>
      </g>
     </g>
     <g id="text_9">
      <!-- 0.00 -->
      <g transform="translate(51.828125 325.718906) scale(0.14 -0.14)">
       <defs>
        <path id="DejaVuSans-2e" d="M 684 794 
L 1344 794 
L 1344 0 
L 684 0 
L 684 794 
z
" transform="scale(0.015625)"/>
       </defs>
       <use xlink:href="#DejaVuSans-30"/>
       <use xlink:href="#DejaVuSans-2e" transform="translate(63.623047 0)"/>
       <use xlink:href="#DejaVuSans-30" transform="translate(95.410156 0)"/>
       <use xlink:href="#DejaVuSans-30" transform="translate(159.033203 0)"/>
      </g>
     </g>
    </g>
    <g id="ytick_2">
     <g id="line2d_9">
      <g>
       <use xlink:href="#md3aa1efff5" x="90" y="278.617988" style="stroke: #000000; stroke-width: 0.8"/>
      </g>
     </g>
     <g id="text_10">
      <!-- 0.02 -->
      <g transform="translate(51.828125 283.936894) scale(0.14 -0.14)">
       <use xlink:href="#DejaVuSans-30"/>
       <use xlink:href="#DejaVuSans-2e" transform="translate(63.623047 0)"/>
       <use xlink:href="#DejaVuSans-30" transform="translate(95.410156 0)"/>
       <use xlink:href="#DejaVuSans-32" transform="translate(159.033203 0)"/>
      </g>
     </g>
    </g>
    <g id="ytick_3">
     <g id="line2d_10">
      <g>
       <use xlink:href="#md3aa1efff5" x="90" y="236.835976" style="stroke: #000000; stroke-width: 0.8"/>
      </g>
     </g>
     <g id="text_11">
      <!-- 0.04 -->
      <g transform="translate(51.828125 242.154882) scale(0.14 -0.14)">
       <defs>
        <path id="DejaVuSans-34" d="M 2419 4116 
L 825 1625 
L 2419 1625 
L 2419 4116 
z
M 2253 4666 
L 3047 4666 
L 3047 1625 
L 3713 1625 
L 3713 1100 
L 3047 1100 
L 3047 0 
L 2419 0 
L 2419 1100 
L 313 1100 
L 313 1709 
L 2253 4666 
z
" transform="scale(0.015625)"/>
       </defs>
       <use xlink:href="#DejaVuSans-30"/>
       <use xlink:href="#DejaVuSans-2e" transform="translate(63.623047 0)"/>
       <use xlink:href="#DejaVuSans-30" transform="translate(95.410156 0)"/>
       <use xlink:href="#DejaVuSans-34" transform="translate(159.033203 0)"/>
      </g>
     </g>
    </g>
    <g id="ytick_4">
     <g id="line2d_11">
      <g>
       <use xlink:href="#md3aa1efff5" x="90" y="195.053964" style="stroke: #000000; stroke-width: 0.8"/>
      </g>
     </g>
     <g id="text_12">
      <!-- 0.06 -->
      <g transform="translate(51.828125 200.37287) scale(0.14 -0.14)">
       <defs>
        <path id="DejaVuSans-36" d="M 2113 2584 
Q 1688 2584 1439 2293 
Q 1191 2003 1191 1497 
Q 1191 994 1439 701 
Q 1688 409 2113 409 
Q 2538 409 2786 701 
Q 3034 994 3034 1497 
Q 3034 2003 2786 2293 
Q 2538 2584 2113 2584 
z
M 3366 4563 
L 3366 3988 
Q 3128 4100 2886 4159 
Q 2644 4219 2406 4219 
Q 1781 4219 1451 3797 
Q 1122 3375 1075 2522 
Q 1259 2794 1537 2939 
Q 1816 3084 2150 3084 
Q 2853 3084 3261 2657 
Q 3669 2231 3669 1497 
Q 3669 778 3244 343 
Q 2819 -91 2113 -91 
Q 1303 -91 875 529 
Q 447 1150 447 2328 
Q 447 3434 972 4092 
Q 1497 4750 2381 4750 
Q 2619 4750 2861 4703 
Q 3103 4656 3366 4563 
z
" transform="scale(0.015625)"/>
       </defs>
       <use xlink:href="#DejaVuSans-30"/>
       <use xlink:href="#DejaVuSans-2e" transform="translate(63.623047 0)"/>
       <use xlink:href="#DejaVuSans-30" transform="translate(95.410156 0)"/>
       <use xlink:href="#DejaVuSans-36" transform="translate(159.033203 0)"/>
      </g>
     </g>
    </g>
    <g id="ytick_5">
     <g id="line2d_12">
      <g>
       <use xlink:href="#md3aa1efff5" x="90" y="153.271952" style="stroke: #000000; stroke-width: 0.8"/>
      </g>
     </g>
     <g id="text_13">
      <!-- 0.08 -->
      <g transform="translate(51.828125 158.590859) scale(0.14 -0.14)">
       <defs>
        <path id="DejaVuSans-38" d="M 2034 2216 
Q 1584 2216 1326 1975 
Q 1069 1734 1069 1313 
Q 1069 891 1326 650 
Q 1584 409 2034 409 
Q 2484 409 2743 651 
Q 3003 894 3003 1313 
Q 3003 1734 2745 1975 
Q 2488 2216 2034 2216 
z
M 1403 2484 
Q 997 2584 770 2862 
Q 544 3141 544 3541 
Q 544 4100 942 4425 
Q 1341 4750 2034 4750 
Q 2731 4750 3128 4425 
Q 3525 4100 3525 3541 
Q 3525 3141 3298 2862 
Q 3072 2584 2669 2484 
Q 3125 2378 3379 2068 
Q 3634 1759 3634 1313 
Q 3634 634 3220 271 
Q 2806 -91 2034 -91 
Q 1263 -91 848 271 
Q 434 634 434 1313 
Q 434 1759 690 2068 
Q 947 2378 1403 2484 
z
M 1172 3481 
Q 1172 3119 1398 2916 
Q 1625 2713 2034 2713 
Q 2441 2713 2670 2916 
Q 2900 3119 2900 3481 
Q 2900 3844 2670 4047 
Q 2441 4250 2034 4250 
Q 1625 4250 1398 4047 
Q 1172 3844 1172 3481 
z
" transform="scale(0.015625)"/>
       </defs>
       <use xlink:href="#DejaVuSans-30"/>
       <use xlink:href="#DejaVuSans-2e" transform="translate(63.623047 0)"/>
       <use xlink:href="#DejaVuSans-30" transform="translate(95.410156 0)"/>
       <use xlink:href="#DejaVuSans-38" transform="translate(159.033203 0)"/>
      </g>
     </g>
    </g>
    <g id="ytick_6">
     <g id="line2d_13">
      <g>
       <use xlink:href="#md3aa1efff5" x="90" y="111.48994" style="stroke: #000000; stroke-width: 0.8"/>
      </g>
     </g>
     <g id="text_14">
      <!-- 0.10 -->
      <g transform="translate(51.828125 116.808847) scale(0.14 -0.14)">
       <use xlink:href="#DejaVuSans-30"/>
       <use xlink:href="#DejaVuSans-2e" transform="translate(63.623047 0)"/>
       <use xlink:href="#DejaVuSans-31" transform="translate(95.410156 0)"/>
       <use xlink:href="#DejaVuSans-30" transform="translate(159.033203 0)"/>
      </g>
     </g>
    </g>
    <g id="ytick_7">
     <g id="line2d_14">
      <g>
       <use xlink:href="#md3aa1efff5" x="90" y="69.707928" style="stroke: #000000; stroke-width: 0.8"/>
      </g>
     </g>
     <g id="text_15">
      <!-- 0.12 -->
      <g transform="translate(51.828125 75.026835) scale(0.14 -0.14)">
       <use xlink:href="#DejaVuSans-30"/>
       <use xlink:href="#DejaVuSans-2e" transform="translate(63.623047 0)"/>
       <use xlink:href="#DejaVuSans-31" transform="translate(95.410156 0)"/>
       <use xlink:href="#DejaVuSans-32" transform="translate(159.033203 0)"/>
      </g>
     </g>
    </g>
   </g>
   <g id="line2d_15">
    <path d="M 115.363636 320.399999 
L 150.637568 320.321477 
L 150.637568 320.321477 
L 157.356412 320.097753 
L 157.356412 320.097753 
L 162.395545 319.668131 
L 162.395545 319.668131 
L 165.754967 319.150061 
L 165.754967 319.150061 
L 169.114389 318.349174 
L 169.114389 318.349174 
L 172.473811 317.158775 
L 172.473811 317.158775 
L 174.153522 316.378924 
L 174.153522 316.378924 
L 175.833233 315.453366 
L 175.833233 315.453366 
L 177.512944 314.364194 
L 177.512944 314.364194 
L 179.192655 313.09301 
L 179.192655 313.09301 
L 180.872366 311.621204 
L 180.872366 311.621204 
L 182.552077 309.930249 
L 182.552077 309.930249 
L 184.231788 308.002031 
L 184.231788 308.002031 
L 185.911499 305.819184 
L 185.911499 305.819184 
L 187.59121 303.365442 
L 187.59121 303.365442 
L 189.270921 300.625976 
L 189.270921 300.625976 
L 190.950632 297.587736 
L 190.950632 297.587736 
L 192.630343 294.239757 
L 192.630343 294.239757 
L 194.310054 290.573452 
L 194.310054 290.573452 
L 195.989765 286.582861 
L 195.989765 286.582861 
L 197.669476 282.264857 
L 197.669476 282.264857 
L 201.028898 272.649223 
L 201.028898 272.649223 
L 204.38832 261.763204 
L 204.38832 261.763204 
L 207.747742 249.693911 
L 207.747742 249.693911 
L 211.107164 236.576661 
L 211.107164 236.576661 
L 214.466586 222.589707 
L 214.466586 222.589707 
L 219.505719 200.452795 
L 219.505719 200.452795 
L 231.263697 147.759965 
L 231.263697 147.759965 
L 234.623119 133.572896 
L 234.623119 133.572896 
L 237.982541 120.192786 
L 237.982541 120.192786 
L 241.341963 107.809531 
L 241.341963 107.809531 
L 244.701385 96.581455 
L 244.701385 96.581455 
L 248.060807 86.633103 
L 248.060807 86.633103 
L 249.740518 82.168329 
L 249.740518 82.168329 
L 251.420229 78.054637 
L 251.420229 78.054637 
L 253.09994 74.298055 
L 253.09994 74.298055 
L 254.779651 70.902622 
L 254.779651 70.902622 
L 256.459362 67.870475 
L 256.459362 67.870475 
L 258.139073 65.201935 
L 258.139073 65.201935 
L 259.818784 62.895618 
L 259.818784 62.895618 
L 261.498495 60.948538 
L 261.498495 60.948538 
L 263.178206 59.356225 
L 263.178206 59.356225 
L 264.857917 58.112844 
L 264.857917 58.112844 
L 266.537628 57.211315 
L 266.537628 57.211315 
L 268.217339 56.643435 
L 268.217339 56.643435 
L 269.89705 56.4 
L 269.89705 56.4 
L 271.576761 56.470921 
L 271.576761 56.470921 
L 273.256472 56.845343 
L 273.256472 56.845343 
L 274.936183 57.511758 
L 274.936183 57.511758 
L 276.615894 58.45811 
L 276.615894 58.45811 
L 278.295605 59.671902 
L 278.295605 59.671902 
L 279.975316 61.140292 
L 279.975316 61.140292 
L 281.655027 62.850184 
L 281.655027 62.850184 
L 283.334738 64.788316 
L 283.334738 64.788316 
L 285.014449 66.941339 
L 285.014449 66.941339 
L 288.373871 71.838663 
L 288.373871 71.838663 
L 291.733293 77.436267 
L 291.733293 77.436267 
L 295.092715 83.630939 
L 295.092715 83.630939 
L 298.452137 90.323631 
L 298.452137 90.323631 
L 301.811559 97.420604 
L 301.811559 97.420604 
L 306.850692 108.634267 
L 306.850692 108.634267 
L 313.569536 124.240035 
L 313.569536 124.240035 
L 328.686936 159.683825 
L 328.686936 159.683825 
L 335.40578 174.755488 
L 335.40578 174.755488 
L 340.444913 185.572238 
L 340.444913 185.572238 
L 345.484046 195.901645 
L 345.484046 195.901645 
L 350.523179 205.702278 
L 350.523179 205.702278 
L 355.562312 214.949143 
L 355.562312 214.949143 
L 360.601445 223.630766 
L 360.601445 223.630766 
L 365.640578 231.746579 
L 365.640578 231.746579 
L 370.679711 239.304625 
L 370.679711 239.304625 
L 375.718844 246.319576 
L 375.718844 246.319576 
L 380.757977 252.811047 
L 380.757977 252.811047 
L 385.79711 258.802193 
L 385.79711 258.802193 
L 390.836243 264.318537 
L 390.836243 264.318537 
L 395.875376 269.38703 
L 395.875376 269.38703 
L 400.914509 274.035291 
L 400.914509 274.035291 
L 405.953642 278.29101 
L 405.953642 278.29101 
L 410.992775 282.181488 
L 410.992775 282.181488 
L 416.031908 285.733291 
L 416.031908 285.733291 
L 421.071042 288.971995 
L 421.071042 288.971995 
L 426.110175 291.922009 
L 426.110175 291.922009 
L 431.149308 294.606459 
L 431.149308 294.606459 
L 436.188441 297.047126 
L 436.188441 297.047126 
L 441.227574 299.264411 
L 441.227574 299.264411 
L 446.266707 301.277345 
L 446.266707 301.277345 
L 452.985551 303.67374 
L 452.985551 303.67374 
L 459.704395 305.776429 
L 459.704395 305.776429 
L 466.423239 307.619815 
L 466.423239 307.619815 
L 473.142083 309.23466 
L 473.142083 309.23466 
L 479.860927 310.648377 
L 479.860927 310.648377 
L 488.259482 312.169509 
L 488.259482 312.169509 
L 496.658037 313.455746 
L 496.658037 313.455746 
L 506.736303 314.738891 
L 506.736303 314.738891 
L 516.81457 315.786503 
L 516.81457 315.786503 
L 528.572547 316.76757 
L 528.572547 316.76757 
L 542.010235 317.637034 
L 542.010235 317.637034 
L 557.127634 318.369747 
L 557.127634 318.369747 
L 573.924744 318.958822 
L 573.924744 318.958822 
L 592.401565 319.411714 
L 620.956653 319.848528 
L 620.956653 319.848528 
L 622.636364 319.867137 
L 622.636364 319.867137 
" clip-path="url(#p0222f92e62)" style="fill: none; stroke: #000000; stroke-width: 2; stroke-linecap: square"/>
   </g>
   <g id="patch_23">
    <path d="M 90 320.4 
L 90 43.2 
" style="fill: none; stroke: #000000; stroke-width: 0.8; stroke-linejoin: miter; stroke-linecap: square"/>
   </g>
   <g id="patch_24">
    <path d="M 648 320.4 
L 648 43.2 
" style="fill: none; stroke: #000000; stroke-width: 0.8; stroke-linejoin: miter; stroke-linecap: square"/>
   </g>
   <g id="patch_25">
    <path d="M 90 320.4 
L 648 320.4 
" style="fill: none; stroke: #000000; stroke-width: 0.8; stroke-linejoin: miter; stroke-linecap: square"/>
   </g>
   <g id="patch_26">
    <path d="M 90 43.2 
L 648 43.2 
" style="fill: none; stroke: #000000; stroke-width: 0.8; stroke-linejoin: miter; stroke-linecap: square"/>
   </g>
   <g id="text_16">
    <!-- PDF -->
    <g transform="translate(351.466875 37.2) scale(0.18 -0.18)">
     <defs>
      <path id="DejaVuSans-50" d="M 1259 4147 
L 1259 2394 
L 2053 2394 
Q 2494 2394 2734 2622 
Q 2975 2850 2975 3272 
Q 2975 3691 2734 3919 
Q 2494 4147 2053 4147 
L 1259 4147 
z
M 628 4666 
L 2053 4666 
Q 2838 4666 3239 4311 
Q 3641 3956 3641 3272 
Q 3641 2581 3239 2228 
Q 2838 1875 2053 1875 
L 1259 1875 
L 1259 0 
L 628 0 
L 628 4666 
z
" transform="scale(0.015625)"/>
      <path id="DejaVuSans-46" d="M 628 4666 
L 3309 4666 
L 3309 4134 
L 1259 4134 
L 1259 2759 
L 3109 2759 
L 3109 2228 
L 1259 2228 
L 1259 0 
L 628 0 
L 628 4666 
z
" transform="scale(0.015625)"/>
     </defs>
     <use xlink:href="#DejaVuSans-50"/>
     <use xlink:href="#DejaVuSans-44" transform="translate(60.302734 0)"/>
     <use xlink:href="#DejaVuSans-46" transform="translate(137.304688 0)"/>
    </g>
   </g>
   <g id="legend_1">
    <g id="patch_27">
     <path d="M 496.605313 95.49875 
L 638.2 95.49875 
Q 641 95.49875 641 92.69875 
L 641 53 
Q 641 50.2 638.2 50.2 
L 496.605313 50.2 
Q 493.805313 50.2 493.805313 53 
L 493.805313 92.69875 
Q 493.805313 95.49875 496.605313 95.49875 
z
" style="fill: #ffffff; opacity: 0.8; stroke: #cccccc; stroke-linejoin: miter"/>
    </g>
    <g id="patch_28">
     <path d="M 499.405313 66.437812 
L 527.405313 66.437812 
L 527.405313 56.637812 
L 499.405313 56.637812 
z
" style="fill: #6495ed; stroke: #000000; stroke-width: 0.2; stroke-linejoin: miter"/>
    </g>
    <g id="text_17">
     <!-- Empirical PDF -->
     <g transform="translate(538.605313 66.437812) scale(0.14 -0.14)">
      <defs>
       <path id="DejaVuSans-45" d="M 628 4666 
L 3578 4666 
L 3578 4134 
L 1259 4134 
L 1259 2753 
L 3481 2753 
L 3481 2222 
L 1259 2222 
L 1259 531 
L 3634 531 
L 3634 0 
L 628 0 
L 628 4666 
z
" transform="scale(0.015625)"/>
       <path id="DejaVuSans-63" d="M 3122 3366 
L 3122 2828 
Q 2878 2963 2633 3030 
Q 2388 3097 2138 3097 
Q 1578 3097 1268 2742 
Q 959 2388 959 1747 
Q 959 1106 1268 751 
Q 1578 397 2138 397 
Q 2388 397 2633 464 
Q 2878 531 3122 666 
L 3122 134 
Q 2881 22 2623 -34 
Q 2366 -91 2075 -91 
Q 1284 -91 818 406 
Q 353 903 353 1747 
Q 353 2603 823 3093 
Q 1294 3584 2113 3584 
Q 2378 3584 2631 3529 
Q 2884 3475 3122 3366 
z
" transform="scale(0.015625)"/>
      </defs>
      <use xlink:href="#DejaVuSans-45"/>
      <use xlink:href="#DejaVuSans-6d" transform="translate(63.183594 0)"/>
      <use xlink:href="#DejaVuSans-70" transform="translate(160.595703 0)"/>
      <use xlink:href="#DejaVuSans-69" transform="translate(224.072266 0)"/>
      <use xlink:href="#DejaVuSans-72" transform="translate(251.855469 0)"/>
      <use xlink:href="#DejaVuSans-69" transform="translate(292.96875 0)"/>
      <use xlink:href="#DejaVuSans-63" transform="translate(320.751953 0)"/>
      <use xlink:href="#DejaVuSans-61" transform="translate(375.732422 0)"/>
      <use xlink:href="#DejaVuSans-6c" transform="translate(437.011719 0)"/>
      <use xlink:href="#DejaVuSans-20" transform="translate(464.794922 0)"/>
      <use xlink:href="#DejaVuSans-50" transform="translate(496.582031 0)"/>
      <use xlink:href="#DejaVuSans-44" transform="translate(556.884766 0)"/>
      <use xlink:href="#DejaVuSans-46" transform="translate(633.886719 0)"/>
     </g>
    </g>
    <g id="line2d_16">
     <path d="M 499.405313 82.087187 
L 513.405313 82.087187 
L 527.405313 82.087187 
" style="fill: none; stroke: #000000; stroke-width: 2; stroke-linecap: square"/>
    </g>
    <g id="text_18">
     <!-- Gumbel PDF -->
     <g transform="translate(538.605313 86.987187) scale(0.14 -0.14)">
      <defs>
       <path id="DejaVuSans-47" d="M 3809 666 
L 3809 1919 
L 2778 1919 
L 2778 2438 
L 4434 2438 
L 4434 434 
Q 4069 175 3628 42 
Q 3188 -91 2688 -91 
Q 1594 -91 976 548 
Q 359 1188 359 2328 
Q 359 3472 976 4111 
Q 1594 4750 2688 4750 
Q 3144 4750 3555 4637 
Q 3966 4525 4313 4306 
L 4313 3634 
Q 3963 3931 3569 4081 
Q 3175 4231 2741 4231 
Q 1884 4231 1454 3753 
Q 1025 3275 1025 2328 
Q 1025 1384 1454 906 
Q 1884 428 2741 428 
Q 3075 428 3337 486 
Q 3600 544 3809 666 
z
" transform="scale(0.015625)"/>
       <path id="DejaVuSans-62" d="M 3116 1747 
Q 3116 2381 2855 2742 
Q 2594 3103 2138 3103 
Q 1681 3103 1420 2742 
Q 1159 2381 1159 1747 
Q 1159 1113 1420 752 
Q 1681 391 2138 391 
Q 2594 391 2855 752 
Q 3116 1113 3116 1747 
z
M 1159 2969 
Q 1341 3281 1617 3432 
Q 1894 3584 2278 3584 
Q 2916 3584 3314 3078 
Q 3713 2572 3713 1747 
Q 3713 922 3314 415 
Q 2916 -91 2278 -91 
Q 1894 -91 1617 61 
Q 1341 213 1159 525 
L 1159 0 
L 581 0 
L 581 4863 
L 1159 4863 
L 1159 2969 
z
" transform="scale(0.015625)"/>
      </defs>
      <use xlink:href="#DejaVuSans-47"/>
      <use xlink:href="#DejaVuSans-75" transform="translate(77.490234 0)"/>
      <use xlink:href="#DejaVuSans-6d" transform="translate(140.869141 0)"/>
      <use xlink:href="#DejaVuSans-62" transform="translate(238.28125 0)"/>
      <use xlink:href="#DejaVuSans-65" transform="translate(301.757812 0)"/>
      <use xlink:href="#DejaVuSans-6c" transform="translate(363.28125 0)"/>
      <use xlink:href="#DejaVuSans-20" transform="translate(391.064453 0)"/>
      <use xlink:href="#DejaVuSans-50" transform="translate(422.851562 0)"/>
      <use xlink:href="#DejaVuSans-44" transform="translate(483.154297 0)"/>
      <use xlink:href="#DejaVuSans-46" transform="translate(560.15625 0)"/>
     </g>
    </g>
   </g>
  </g>
 </g>
 <defs>
  <clipPath id="p0222f92e62">
   <rect x="90" y="43.2" width="558" height="277.2"/>
  </clipPath>
 </defs>
</svg>
